<svg id="visual" viewBox="0 0 900 600" width="900" height="600" xmlns="http://www.w3.org/2000/svg" xmlns:xlink="http://www.w3.org/1999/xlink" version="1.1"><g transform="translate(468.60617162726874 330.4151137213711)"><path d="M169.5 -220.9C235.6 -185.3 316.1 -157.1 325.9 -109.9C335.7 -62.7 274.9 3.4 240.1 68C205.4 132.6 196.7 195.8 161.1 235.5C125.4 275.3 62.7 291.6 7.1 281.9C-48.6 272.2 -97.2 236.4 -153.1 203.3C-209.1 170.1 -272.4 139.6 -313.3 85C-354.1 30.4 -372.5 -48.3 -360.6 -127.2C-348.8 -206 -306.6 -285 -241.5 -320.9C-176.3 -356.7 -88.2 -349.4 -18.2 -324.3C51.7 -299.2 103.5 -256.4 169.5 -220.9" fill="#F3E99F"></path></g></svg>