<svg id="visual" viewBox="0 0 900 600" width="900" height="600" xmlns="http://www.w3.org/2000/svg" xmlns:xlink="http://www.w3.org/1999/xlink" version="1.1"><g transform="translate(461.40784953619135 329.07737618956014)"><path d="M189.7 -267.9C236 -227.5 256.8 -158.9 257.8 -97.6C258.7 -36.3 239.7 17.7 224.7 75.9C209.8 134.1 198.9 196.5 162.2 215.8C125.4 235.1 62.7 211.3 -5.4 218.7C-73.5 226.1 -146.9 264.8 -183.6 245.4C-220.2 226 -219.9 148.7 -238.4 80.2C-256.8 11.7 -293.9 -47.9 -275.8 -85.3C-257.7 -122.7 -184.4 -137.8 -129.2 -175.4C-74.1 -212.9 -37 -273 17.3 -296.8C71.7 -320.7 143.4 -308.4 189.7 -267.9" fill="#7ece94"></path></g></svg>