<svg id="visual" viewBox="0 0 900 600" width="900" height="600" xmlns="http://www.w3.org/2000/svg" xmlns:xlink="http://www.w3.org/1999/xlink" version="1.1"><rect x="0" y="0" width="900" height="600" fill="#FF6D60"></rect><path d="M0 385L16.7 387.8C33.3 390.7 66.7 396.3 100 397.3C133.3 398.3 166.7 394.7 200 398C233.3 401.3 266.7 411.7 300 417.7C333.3 423.7 366.7 425.3 400 419.3C433.3 413.3 466.7 399.7 500 399.2C533.3 398.7 566.7 411.3 600 409.2C633.3 407 666.7 390 700 389.5C733.3 389 766.7 405 800 406.7C833.3 408.3 866.7 395.7 883.3 389.3L900 383L900 601L883.3 601C866.7 601 833.3 601 800 601C766.7 601 733.3 601 700 601C666.7 601 633.3 601 600 601C566.7 601 533.3 601 500 601C466.7 601 433.3 601 400 601C366.7 601 333.3 601 300 601C266.7 601 233.3 601 200 601C166.7 601 133.3 601 100 601C66.7 601 33.3 601 16.7 601L0 601Z" fill="#f7d060"></path><path d="M0 449L16.7 445.3C33.3 441.7 66.7 434.3 100 434.8C133.3 435.3 166.7 443.7 200 442.7C233.3 441.7 266.7 431.3 300 430.7C333.3 430 366.7 439 400 443C433.3 447 466.7 446 500 448C533.3 450 566.7 455 600 454.7C633.3 454.3 666.7 448.7 700 445.5C733.3 442.3 766.7 441.7 800 443.2C833.3 444.7 866.7 448.3 883.3 450.2L900 452L900 601L883.3 601C866.7 601 833.3 601 800 601C766.7 601 733.3 601 700 601C666.7 601 633.3 601 600 601C566.7 601 533.3 601 500 601C466.7 601 433.3 601 400 601C366.7 601 333.3 601 300 601C266.7 601 233.3 601 200 601C166.7 601 133.3 601 100 601C66.7 601 33.3 601 16.7 601L0 601Z" fill="#d9d66e"></path><path d="M0 491L16.7 491.8C33.3 492.7 66.7 494.3 100 490C133.3 485.7 166.7 475.3 200 470C233.3 464.7 266.7 464.3 300 463.3C333.3 462.3 366.7 460.7 400 465.7C433.3 470.7 466.7 482.3 500 481.8C533.3 481.3 566.7 468.7 600 463.3C633.3 458 666.7 460 700 460.2C733.3 460.3 766.7 458.7 800 462.8C833.3 467 866.7 477 883.3 482L900 487L900 601L883.3 601C866.7 601 833.3 601 800 601C766.7 601 733.3 601 700 601C666.7 601 633.3 601 600 601C566.7 601 533.3 601 500 601C466.7 601 433.3 601 400 601C366.7 601 333.3 601 300 601C266.7 601 233.3 601 200 601C166.7 601 133.3 601 100 601C66.7 601 33.3 601 16.7 601L0 601Z" fill="#bed981"></path><path d="M0 521L16.7 520.7C33.3 520.3 66.7 519.7 100 516C133.3 512.3 166.7 505.7 200 505.7C233.3 505.7 266.7 512.3 300 516.5C333.3 520.7 366.7 522.3 400 519.3C433.3 516.3 466.7 508.7 500 504.2C533.3 499.7 566.7 498.3 600 500.7C633.3 503 666.7 509 700 514C733.3 519 766.7 523 800 522.7C833.3 522.3 866.7 517.7 883.3 515.3L900 513L900 601L883.3 601C866.7 601 833.3 601 800 601C766.7 601 733.3 601 700 601C666.7 601 633.3 601 600 601C566.7 601 533.3 601 500 601C466.7 601 433.3 601 400 601C366.7 601 333.3 601 300 601C266.7 601 233.3 601 200 601C166.7 601 133.3 601 100 601C66.7 601 33.3 601 16.7 601L0 601Z" fill="#a8da96"></path><path d="M0 555L16.7 553.8C33.3 552.7 66.7 550.3 100 549.7C133.3 549 166.7 550 200 550.3C233.3 550.7 266.7 550.3 300 549.2C333.3 548 366.7 546 400 545.8C433.3 545.7 466.7 547.3 500 550C533.3 552.7 566.7 556.3 600 555C633.3 553.7 666.7 547.3 700 545.2C733.3 543 766.7 545 800 545.7C833.3 546.3 866.7 545.7 883.3 545.3L900 545L900 601L883.3 601C866.7 601 833.3 601 800 601C766.7 601 733.3 601 700 601C666.7 601 633.3 601 600 601C566.7 601 533.3 601 500 601C466.7 601 433.3 601 400 601C366.7 601 333.3 601 300 601C266.7 601 233.3 601 200 601C166.7 601 133.3 601 100 601C66.7 601 33.3 601 16.7 601L0 601Z" fill="#98d8aa"></path></svg>